<?xml version="1.0" encoding="UTF-8"?>
<svg xmlns="http://www.w3.org/2000/svg" xmlns:xlink="http://www.w3.org/1999/xlink" width="854" height="480" viewBox="0 0 854 480">
<defs>
<g>
<g id="glyph-0-0">
<path d="M 3.089844 -1.003906 C 3.210938 -0.921875 3.308594 -0.816406 3.390625 -0.683594 C 3.46875 -0.550781 3.507812 -0.390625 3.507812 -0.195312 C 3.507812 0.175781 3.332031 0.484375 2.976562 0.730469 C 2.617188 0.976562 2.160156 1.101562 1.597656 1.101562 C 1.199219 1.101562 0.855469 1.015625 0.574219 0.84375 C 0.296875 0.671875 0.15625 0.460938 0.15625 0.207031 C 0.15625 0.0664062 0.199219 -0.0507812 0.289062 -0.148438 C 0.382812 -0.246094 0.503906 -0.296875 0.652344 -0.296875 C 0.8125 -0.296875 0.9375 -0.253906 1.039062 -0.167969 C 1.140625 -0.0859375 1.191406 0.0273438 1.191406 0.171875 C 1.191406 0.265625 1.171875 0.375 1.136719 0.496094 C 1.101562 0.617188 1.074219 0.707031 1.054688 0.765625 C 1.101562 0.785156 1.15625 0.800781 1.226562 0.808594 C 1.296875 0.820312 1.378906 0.828125 1.472656 0.828125 C 1.585938 0.828125 1.699219 0.808594 1.808594 0.769531 C 1.921875 0.730469 2.015625 0.671875 2.097656 0.585938 C 2.183594 0.496094 2.25 0.390625 2.296875 0.269531 C 2.34375 0.148438 2.367188 -0.0117188 2.367188 -0.207031 C 2.367188 -0.320312 2.355469 -0.429688 2.335938 -0.53125 C 2.3125 -0.632812 2.277344 -0.722656 2.21875 -0.796875 C 2.164062 -0.871094 2.089844 -0.929688 1.992188 -0.972656 C 1.894531 -1.015625 1.773438 -1.039062 1.625 -1.039062 L 1.246094 -1.039062 L 1.246094 -1.398438 L 1.511719 -1.398438 C 1.761719 -1.398438 1.945312 -1.472656 2.058594 -1.621094 C 2.167969 -1.769531 2.226562 -1.996094 2.226562 -2.300781 C 2.226562 -2.546875 2.171875 -2.730469 2.0625 -2.851562 C 1.953125 -2.972656 1.796875 -3.035156 1.59375 -3.035156 C 1.515625 -3.035156 1.449219 -3.03125 1.390625 -3.019531 C 1.332031 -3.011719 1.273438 -2.996094 1.214844 -2.972656 C 1.234375 -2.902344 1.261719 -2.808594 1.296875 -2.6875 C 1.328125 -2.566406 1.34375 -2.464844 1.34375 -2.378906 C 1.34375 -2.238281 1.292969 -2.125 1.195312 -2.039062 C 1.097656 -1.957031 0.972656 -1.914062 0.816406 -1.914062 C 0.664062 -1.914062 0.546875 -1.964844 0.457031 -2.0625 C 0.371094 -2.160156 0.324219 -2.277344 0.324219 -2.417969 C 0.324219 -2.664062 0.46875 -2.875 0.753906 -3.046875 C 1.039062 -3.222656 1.398438 -3.308594 1.828125 -3.308594 C 2.128906 -3.308594 2.375 -3.273438 2.570312 -3.203125 C 2.765625 -3.136719 2.921875 -3.050781 3.035156 -2.949219 C 3.144531 -2.847656 3.222656 -2.742188 3.265625 -2.628906 C 3.308594 -2.511719 3.328125 -2.410156 3.328125 -2.316406 C 3.328125 -2.230469 3.3125 -2.132812 3.273438 -2.019531 C 3.238281 -1.910156 3.183594 -1.8125 3.113281 -1.730469 C 3.023438 -1.628906 2.910156 -1.542969 2.769531 -1.46875 C 2.628906 -1.394531 2.460938 -1.335938 2.273438 -1.296875 L 2.273438 -1.25 C 2.402344 -1.242188 2.542969 -1.21875 2.691406 -1.179688 C 2.84375 -1.140625 2.976562 -1.082031 3.089844 -1.003906 Z "/>
</g>
<g id="glyph-0-1">
<path d="M 2.875 -1.414062 C 3.027344 -1.316406 3.152344 -1.179688 3.253906 -1.011719 C 3.355469 -0.84375 3.40625 -0.636719 3.40625 -0.386719 C 3.40625 0.0507812 3.234375 0.40625 2.894531 0.683594 C 2.554688 0.960938 2.125 1.101562 1.597656 1.101562 C 1.1875 1.101562 0.847656 1.011719 0.574219 0.839844 C 0.304688 0.664062 0.167969 0.457031 0.167969 0.21875 C 0.167969 0.078125 0.210938 -0.0429688 0.304688 -0.140625 C 0.394531 -0.238281 0.515625 -0.285156 0.664062 -0.285156 C 0.824219 -0.285156 0.953125 -0.246094 1.050781 -0.160156 C 1.152344 -0.0742188 1.203125 0.0390625 1.203125 0.179688 C 1.203125 0.277344 1.183594 0.386719 1.152344 0.503906 C 1.117188 0.621094 1.089844 0.710938 1.066406 0.773438 C 1.117188 0.789062 1.171875 0.804688 1.234375 0.8125 C 1.300781 0.820312 1.359375 0.828125 1.414062 0.828125 C 1.527344 0.828125 1.640625 0.800781 1.75 0.75 C 1.859375 0.699219 1.953125 0.625 2.027344 0.527344 C 2.117188 0.417969 2.1875 0.285156 2.230469 0.132812 C 2.277344 -0.0195312 2.300781 -0.191406 2.300781 -0.386719 C 2.300781 -0.664062 2.226562 -0.894531 2.074219 -1.074219 C 1.925781 -1.253906 1.730469 -1.34375 1.492188 -1.34375 C 1.304688 -1.34375 1.148438 -1.308594 1.023438 -1.234375 C 0.898438 -1.160156 0.785156 -1.0625 0.6875 -0.941406 L 0.457031 -1.015625 L 0.746094 -3.214844 L 3.265625 -3.214844 L 3.265625 -2.390625 L 0.960938 -2.390625 L 0.839844 -1.40625 C 0.945312 -1.472656 1.085938 -1.539062 1.253906 -1.597656 C 1.421875 -1.660156 1.621094 -1.691406 1.851562 -1.691406 C 2.027344 -1.691406 2.203125 -1.671875 2.375 -1.632812 C 2.546875 -1.59375 2.714844 -1.523438 2.875 -1.414062 Z "/>
</g>
</g>
</defs>
<g fill="rgb(0%, 0%, 0%)" fill-opacity="1">
<use xlink:href="#glyph-0-0" x="30" y="25.603516"/>
<use xlink:href="#glyph-0-1" x="34" y="25.603516"/>
</g>
</svg>
