<?xml version="1.0" encoding="UTF-8"?>
<svg xmlns="http://www.w3.org/2000/svg" xmlns:xlink="http://www.w3.org/1999/xlink" width="854" height="480" viewBox="0 0 854 480">
<defs>
<g>
<g id="glyph-0-0">
<path d="M 7.898438 0 L 1.320312 0 L 1.320312 -0.695312 C 1.515625 -0.707031 1.816406 -0.734375 2.230469 -0.777344 C 2.644531 -0.820312 2.929688 -0.863281 3.085938 -0.90625 C 3.289062 -0.972656 3.441406 -1.078125 3.550781 -1.226562 C 3.65625 -1.371094 3.710938 -1.59375 3.710938 -1.882812 L 3.710938 -8.742188 L 1.28125 -8.742188 L 1.28125 -9.5625 L 1.816406 -9.5625 C 2.519531 -9.5625 3.148438 -9.691406 3.707031 -9.953125 C 4.261719 -10.210938 4.660156 -10.492188 4.902344 -10.789062 L 5.710938 -10.789062 C 5.695312 -10.367188 5.671875 -9.875 5.65625 -9.304688 C 5.632812 -8.742188 5.625 -8.234375 5.625 -7.78125 L 5.625 -1.992188 C 5.625 -1.765625 5.675781 -1.5625 5.777344 -1.382812 C 5.878906 -1.203125 6.023438 -1.070312 6.210938 -0.984375 C 6.378906 -0.914062 6.65625 -0.851562 7.039062 -0.789062 C 7.425781 -0.734375 7.710938 -0.699219 7.898438 -0.695312 Z "/>
</g>
<g id="glyph-0-1">
<path d="M 10.5 -4.496094 C 10.5 -3.820312 10.375 -3.1875 10.132812 -2.59375 C 9.886719 -2.003906 9.5625 -1.5 9.148438 -1.082031 C 8.675781 -0.609375 8.148438 -0.257812 7.574219 -0.0273438 C 6.996094 0.199219 6.398438 0.3125 5.773438 0.3125 C 5.046875 0.3125 4.394531 0.179688 3.808594 -0.0859375 C 3.222656 -0.355469 2.726562 -0.730469 2.3125 -1.21875 C 1.898438 -1.714844 1.574219 -2.320312 1.347656 -3.035156 C 1.121094 -3.75 1.007812 -4.554688 1.007812 -5.445312 C 1.007812 -7.769531 1.699219 -9.726562 3.082031 -11.320312 C 4.464844 -12.914062 6.320312 -13.871094 8.640625 -14.1875 L 8.820312 -13.3125 L 7.9375 -13.15625 C 6.527344 -12.699219 5.433594 -11.988281 4.664062 -11.027344 C 3.890625 -10.0625 3.390625 -8.894531 3.164062 -7.519531 C 3.722656 -8.007812 4.277344 -8.351562 4.824219 -8.554688 C 5.371094 -8.757812 5.945312 -8.859375 6.554688 -8.859375 C 7.640625 -8.859375 8.570312 -8.441406 9.339844 -7.609375 C 10.113281 -6.777344 10.5 -5.738281 10.5 -4.496094 M 8.378906 -4.238281 C 8.378906 -5.292969 8.136719 -6.140625 7.652344 -6.777344 C 7.167969 -7.414062 6.515625 -7.734375 5.703125 -7.734375 C 5.214844 -7.734375 4.761719 -7.644531 4.339844 -7.460938 C 3.921875 -7.277344 3.515625 -6.972656 3.125 -6.542969 C 3.117188 -6.464844 3.109375 -6.285156 3.09375 -6 C 3.082031 -5.71875 3.078125 -5.496094 3.078125 -5.332031 C 3.078125 -3.808594 3.324219 -2.617188 3.824219 -1.753906 C 4.320312 -0.890625 4.976562 -0.460938 5.789062 -0.460938 C 6.566406 -0.460938 7.191406 -0.796875 7.664062 -1.46875 C 8.140625 -2.144531 8.378906 -3.066406 8.378906 -4.238281 Z "/>
</g>
</g>
</defs>
<g fill="rgb(34.509804%, 76.862745%, 86.666667%)" fill-opacity="1">
<use xlink:href="#glyph-0-0" x="30" y="38.339844"/>
<use xlink:href="#glyph-0-1" x="39" y="38.339844"/>
</g>
</svg>
