<?xml version="1.0" encoding="UTF-8"?>
<svg xmlns="http://www.w3.org/2000/svg" xmlns:xlink="http://www.w3.org/1999/xlink" width="854" height="480" viewBox="0 0 854 480">
<defs>
<g>
<g id="glyph-0-0">
<path d="M 2.890625 -2.609375 C 2.890625 -2.429688 2.855469 -2.269531 2.785156 -2.128906 C 2.714844 -1.992188 2.617188 -1.875 2.492188 -1.785156 C 2.367188 -1.695312 2.230469 -1.625 2.082031 -1.585938 C 1.933594 -1.542969 1.777344 -1.519531 1.609375 -1.519531 L 1.222656 -1.519531 L 1.222656 -0.472656 C 1.222656 -0.414062 1.234375 -0.363281 1.25 -0.320312 C 1.269531 -0.277344 1.308594 -0.246094 1.367188 -0.222656 C 1.398438 -0.210938 1.449219 -0.199219 1.523438 -0.191406 C 1.597656 -0.179688 1.664062 -0.175781 1.726562 -0.171875 L 1.726562 0 L 0.238281 0 L 0.238281 -0.171875 C 0.277344 -0.175781 0.335938 -0.183594 0.410156 -0.191406 C 0.484375 -0.199219 0.535156 -0.210938 0.5625 -0.222656 C 0.613281 -0.242188 0.648438 -0.273438 0.671875 -0.316406 C 0.691406 -0.355469 0.703125 -0.40625 0.703125 -0.472656 L 0.703125 -2.972656 C 0.703125 -3.027344 0.695312 -3.078125 0.679688 -3.125 C 0.664062 -3.171875 0.625 -3.203125 0.5625 -3.226562 C 0.503906 -3.25 0.441406 -3.265625 0.378906 -3.273438 C 0.320312 -3.28125 0.265625 -3.289062 0.222656 -3.289062 L 0.222656 -3.464844 L 1.804688 -3.464844 C 2.125 -3.464844 2.386719 -3.386719 2.589844 -3.230469 C 2.789062 -3.074219 2.890625 -2.867188 2.890625 -2.609375 M 2.148438 -2.019531 C 2.203125 -2.097656 2.242188 -2.179688 2.257812 -2.261719 C 2.277344 -2.347656 2.285156 -2.421875 2.285156 -2.488281 C 2.285156 -2.582031 2.273438 -2.675781 2.253906 -2.769531 C 2.230469 -2.867188 2.191406 -2.949219 2.140625 -3.023438 C 2.082031 -3.097656 2.007812 -3.160156 1.914062 -3.199219 C 1.820312 -3.242188 1.707031 -3.265625 1.566406 -3.265625 L 1.222656 -3.265625 L 1.222656 -1.734375 L 1.472656 -1.734375 C 1.648438 -1.734375 1.789062 -1.761719 1.902344 -1.816406 C 2.011719 -1.871094 2.09375 -1.9375 2.148438 -2.019531 Z "/>
</g>
<g id="glyph-0-1">
<path d="M 1.710938 0.800781 C 1.265625 0.746094 0.917969 0.523438 0.664062 0.128906 C 0.414062 -0.261719 0.285156 -0.789062 0.285156 -1.453125 C 0.285156 -2.128906 0.414062 -2.664062 0.664062 -3.058594 C 0.917969 -3.453125 1.265625 -3.679688 1.710938 -3.742188 L 1.710938 -3.539062 C 1.398438 -3.480469 1.160156 -3.28125 1 -2.9375 C 0.835938 -2.597656 0.753906 -2.101562 0.753906 -1.449219 C 0.753906 -0.828125 0.835938 -0.347656 0.992188 -0.00390625 C 1.152344 0.339844 1.390625 0.542969 1.710938 0.601562 Z "/>
</g>
<g id="glyph-0-2">
<path d="M 2.496094 0 L 1.390625 0 L 1.390625 -0.160156 C 1.464844 -0.167969 1.527344 -0.175781 1.578125 -0.1875 C 1.628906 -0.195312 1.65625 -0.214844 1.65625 -0.25 C 1.65625 -0.261719 1.648438 -0.285156 1.632812 -0.316406 C 1.617188 -0.347656 1.597656 -0.375 1.582031 -0.402344 C 1.542969 -0.464844 1.484375 -0.550781 1.414062 -0.65625 C 1.34375 -0.765625 1.257812 -0.890625 1.15625 -1.039062 C 1.070312 -0.933594 0.992188 -0.832031 0.921875 -0.730469 C 0.847656 -0.632812 0.773438 -0.523438 0.695312 -0.414062 C 0.683594 -0.394531 0.671875 -0.375 0.660156 -0.351562 C 0.648438 -0.328125 0.640625 -0.308594 0.640625 -0.292969 C 0.640625 -0.257812 0.664062 -0.226562 0.710938 -0.203125 C 0.757812 -0.179688 0.828125 -0.164062 0.921875 -0.15625 L 0.921875 0 L 0.03125 0 L 0.03125 -0.152344 C 0.140625 -0.183594 0.230469 -0.222656 0.296875 -0.269531 C 0.363281 -0.316406 0.425781 -0.375 0.484375 -0.441406 C 0.535156 -0.507812 0.605469 -0.597656 0.695312 -0.710938 C 0.785156 -0.824219 0.902344 -0.980469 1.046875 -1.175781 C 0.960938 -1.296875 0.859375 -1.441406 0.742188 -1.613281 C 0.621094 -1.78125 0.523438 -1.925781 0.445312 -2.039062 C 0.402344 -2.101562 0.355469 -2.152344 0.300781 -2.1875 C 0.246094 -2.226562 0.167969 -2.246094 0.0703125 -2.246094 L 0.0703125 -2.40625 L 1.117188 -2.40625 L 1.117188 -2.246094 C 1.0625 -2.246094 1.011719 -2.242188 0.960938 -2.234375 C 0.910156 -2.230469 0.886719 -2.214844 0.886719 -2.191406 C 0.886719 -2.179688 0.890625 -2.160156 0.902344 -2.144531 C 0.910156 -2.125 0.921875 -2.105469 0.9375 -2.085938 C 0.972656 -2.03125 1.03125 -1.945312 1.105469 -1.828125 C 1.179688 -1.714844 1.261719 -1.589844 1.351562 -1.460938 C 1.40625 -1.539062 1.472656 -1.632812 1.550781 -1.734375 C 1.625 -1.839844 1.695312 -1.9375 1.757812 -2.035156 C 1.765625 -2.046875 1.773438 -2.058594 1.777344 -2.078125 C 1.785156 -2.09375 1.789062 -2.109375 1.789062 -2.125 C 1.789062 -2.160156 1.761719 -2.1875 1.703125 -2.207031 C 1.648438 -2.230469 1.59375 -2.242188 1.542969 -2.25 L 1.542969 -2.40625 L 2.429688 -2.40625 L 2.429688 -2.257812 C 2.304688 -2.222656 2.207031 -2.183594 2.140625 -2.140625 C 2.070312 -2.09375 2.007812 -2.042969 1.960938 -1.984375 C 1.90625 -1.917969 1.84375 -1.835938 1.769531 -1.738281 C 1.695312 -1.640625 1.589844 -1.503906 1.457031 -1.328125 C 1.605469 -1.121094 1.726562 -0.949219 1.820312 -0.816406 C 1.910156 -0.683594 2.003906 -0.542969 2.101562 -0.402344 C 2.148438 -0.332031 2.199219 -0.273438 2.257812 -0.234375 C 2.316406 -0.191406 2.394531 -0.167969 2.496094 -0.160156 Z "/>
</g>
<g id="glyph-0-3">
<path d="M 1.589844 -1.453125 C 1.589844 -0.789062 1.460938 -0.261719 1.210938 0.128906 C 0.957031 0.523438 0.609375 0.746094 0.164062 0.800781 L 0.164062 0.601562 C 0.484375 0.542969 0.722656 0.339844 0.882812 -0.00390625 C 1.039062 -0.347656 1.121094 -0.828125 1.121094 -1.449219 C 1.121094 -2.101562 1.039062 -2.597656 0.875 -2.9375 C 0.714844 -3.28125 0.476562 -3.480469 0.164062 -3.539062 L 0.164062 -3.742188 C 0.609375 -3.679688 0.957031 -3.453125 1.210938 -3.058594 C 1.460938 -2.664062 1.589844 -2.128906 1.589844 -1.453125 Z "/>
</g>
</g>
</defs>
<g fill="rgb(86.666667%, 86.666667%, 86.666667%)" fill-opacity="1">
<use xlink:href="#glyph-0-0" x="30" y="24.584961"/>
<use xlink:href="#glyph-0-1" x="33" y="24.584961"/>
<use xlink:href="#glyph-0-2" x="35" y="24.584961"/>
<use xlink:href="#glyph-0-3" x="38" y="24.584961"/>
</g>
</svg>
